<svg width="21" height="21" viewBox="0 0 21 21" fill="none" xmlns="http://www.w3.org/2000/svg">
<path d="M14.7917 4.79387C15.1823 4.40335 15.8154 4.40335 16.206 4.79387C16.5965 5.18439 16.5965 5.81756 16.206 6.20808L11.9143 10.4998L16.206 14.7915C16.5965 15.182 16.5965 15.8152 16.206 16.2057C15.8154 16.5962 15.1823 16.5962 14.7918 16.2057L10.5 11.914L6.20833 16.2057C5.8178 16.5962 5.18464 16.5962 4.79411 16.2057C4.40359 15.8152 4.40359 15.182 4.79411 14.7915L9.08583 10.4998L4.79412 6.20808C4.4036 5.81756 4.4036 5.18439 4.79412 4.79387C5.18464 4.40335 5.81781 4.40335 6.20833 4.79387L10.5 9.08558L14.7917 4.79387Z" fill="white"/>
</svg>
