<svg width="23" height="23" viewBox="0 0 23 23" fill="none" xmlns="http://www.w3.org/2000/svg">
<g clip-path="url(#clip0_210_434)">
<path d="M13.3735 11.4998C13.3735 12.656 12.4363 13.5933 11.28 13.5933C10.1238 13.5933 9.18652 12.656 9.18652 11.4998C9.18652 10.3435 10.1238 9.40625 11.28 9.40625C12.4363 9.40625 13.3735 10.3435 13.3735 11.4998Z" fill="#2A7DE3"/>
<path d="M11.2803 0.5625C5.24058 0.5625 0.342773 5.46031 0.342773 11.5C0.342773 17.5397 5.24058 22.4375 11.2803 22.4375C17.32 22.4375 22.2178 17.5397 22.2178 11.5C22.2178 5.46031 17.32 0.5625 11.2803 0.5625ZM17.5229 14.0893C17.4925 14.7579 17.3862 15.2144 17.231 15.6139C16.9047 16.4576 16.2378 17.1245 15.3942 17.4507C14.9948 17.6059 14.5382 17.7121 13.8698 17.7426C13.2 17.7732 12.9861 17.7805 11.2804 17.7805C9.57463 17.7805 9.36084 17.7732 8.69093 17.7426C8.02252 17.7121 7.5659 17.6059 7.16653 17.4507C6.74729 17.293 6.36778 17.0459 6.05402 16.7263C5.73459 16.4127 5.48742 16.033 5.3297 15.6139C5.17449 15.2145 5.06818 14.7579 5.03781 14.0895C5.00693 13.4196 4.99976 13.2056 4.99976 11.5C4.99976 9.79435 5.00693 9.5804 5.03764 8.91066C5.06802 8.24208 5.17416 7.78563 5.32937 7.38609C5.48708 6.96702 5.73442 6.58734 6.05402 6.27375C6.36761 5.95415 6.74729 5.70698 7.16636 5.54926C7.5659 5.39405 8.02236 5.28791 8.69093 5.25737C9.36067 5.22683 9.57463 5.21948 11.2803 5.21948C12.9859 5.21948 13.1999 5.22683 13.8696 5.25753C14.5382 5.28791 14.9946 5.39405 15.3942 5.5491C15.8133 5.70681 16.1929 5.95415 16.5067 6.27375C16.8261 6.5875 17.0735 6.96702 17.231 7.38609C17.3864 7.78563 17.4925 8.24208 17.5231 8.91066C17.5536 9.5804 17.5608 9.79435 17.5608 11.5C17.5608 13.2056 17.5536 13.4196 17.5229 14.0893Z" fill="#2A7DE3"/>
<ellipse cx="14.2881" cy="7.94531" rx="0.820312" ry="0.820312" fill="#2A7DE3"/>
</g>
<defs>
<clipPath id="clip0_210_434">
<rect width="21.875" height="21.875" fill="white" transform="translate(0.342773 0.5625)"/>
</clipPath>
</defs>
</svg>
