<svg width="22" height="21" viewBox="0 0 22 21" fill="none" xmlns="http://www.w3.org/2000/svg">
<path d="M10.8195 0H10.8141C4.8714 0 0.0388184 4.70925 0.0388184 10.5C0.0388184 12.7969 0.798667 14.9257 2.09068 16.6543L0.747472 20.5551L4.89026 19.2649C6.59453 20.3647 8.62753 21 10.8195 21C16.7622 21 21.5948 16.2894 21.5948 10.5C21.5948 4.71056 16.7622 0 10.8195 0ZM17.091 14.8273C16.8309 15.5426 15.7989 16.1359 14.9758 16.3091C14.4126 16.4259 13.677 16.5191 11.2008 15.519C8.0334 14.2406 5.99366 11.1051 5.83469 10.9016C5.68245 10.6982 4.5548 9.24131 4.5548 7.73456C4.5548 6.22781 5.34024 5.49412 5.65685 5.17913C5.91687 4.92056 6.34664 4.80244 6.7589 4.80244C6.89228 4.80244 7.01218 4.809 7.11996 4.81425C7.43656 4.82737 7.59554 4.84575 7.80436 5.33269C8.06438 5.943 8.69759 7.44975 8.77304 7.60463C8.84983 7.7595 8.92662 7.9695 8.81884 8.17294C8.7178 8.38294 8.62888 8.47612 8.4699 8.65462C8.31093 8.83313 8.16004 8.96963 8.00106 9.16125C7.85556 9.32794 7.6912 9.50644 7.87442 9.81488C8.05765 10.1167 8.69085 11.1234 9.62315 11.9319C10.8262 12.9754 11.8017 13.3088 12.1506 13.4505C12.4106 13.5555 12.7205 13.5306 12.9104 13.3337C13.1516 13.0804 13.4493 12.6604 13.7525 12.2469C13.968 11.9503 14.2402 11.9136 14.5258 12.0186C14.8168 12.117 16.3567 12.8586 16.6733 13.0121C16.9899 13.167 17.1987 13.2405 17.2755 13.3704C17.351 13.5004 17.351 14.1107 17.091 14.8273Z" fill="#2A7DE3"/>
</svg>
