<svg width="23" height="23" viewBox="0 0 23 23" fill="none" xmlns="http://www.w3.org/2000/svg">
<circle cx="11.5935" cy="11.5" r="10.9375" fill="#2A7DE3"/>
<path d="M18.2315 15.0272C18.2141 14.9872 18.1978 14.954 18.1828 14.9274C17.9334 14.4481 17.457 13.8599 16.7537 13.1626L16.7388 13.1466L16.7314 13.1388L16.7239 13.1307H16.7163C16.3971 12.806 16.1949 12.5877 16.1103 12.4759C15.9555 12.2629 15.9207 12.0474 16.0054 11.829C16.0652 11.664 16.2899 11.3155 16.6788 10.7831C16.8834 10.5009 17.0454 10.2748 17.1651 10.1044C18.0281 8.88 18.4023 8.09758 18.2874 7.75686L18.2429 7.67723C18.2129 7.6293 18.1356 7.58545 18.011 7.54545C17.8862 7.50554 17.7266 7.49894 17.5321 7.52554L15.3773 7.54142C15.3423 7.52822 15.2925 7.52945 15.2276 7.54545C15.1627 7.56145 15.1302 7.56948 15.1302 7.56948L15.0927 7.58947L15.063 7.6135C15.038 7.62938 15.0106 7.65732 14.9806 7.69726C14.9508 7.73706 14.9259 7.78376 14.906 7.83698C14.6714 8.4811 14.4046 9.07997 14.1053 9.63356C13.9207 9.96365 13.7512 10.2497 13.5964 10.492C13.4418 10.7341 13.3121 10.9125 13.2074 11.0269C13.1026 11.1413 13.008 11.233 12.923 11.3023C12.8382 11.3716 12.7735 11.4009 12.7286 11.3902C12.6837 11.3795 12.6414 11.3689 12.6013 11.3582C12.5315 11.3103 12.4754 11.2451 12.4331 11.1626C12.3905 11.0801 12.3619 10.9762 12.347 10.8511C12.332 10.726 12.3233 10.6183 12.3208 10.5278C12.3184 10.4373 12.3195 10.3094 12.3246 10.1444C12.3297 9.97934 12.332 9.86764 12.332 9.80908C12.332 9.60677 12.3358 9.38719 12.3432 9.15031C12.3507 8.91342 12.3568 8.72574 12.3619 8.58746C12.367 8.44905 12.3694 8.30262 12.3694 8.14824C12.3694 7.99385 12.3606 7.87278 12.3432 7.78491C12.326 7.69715 12.2996 7.61196 12.2649 7.52937C12.2299 7.44687 12.1786 7.38304 12.1115 7.33774C12.0441 7.29249 11.9604 7.25658 11.8608 7.2299C11.5964 7.16605 11.2597 7.13151 10.8506 7.12614C9.92287 7.11551 9.32675 7.17944 9.06237 7.31785C8.95763 7.37633 8.86284 7.45624 8.77809 7.55731C8.68828 7.67447 8.67575 7.7384 8.74059 7.74891C9.03992 7.79677 9.25182 7.91124 9.37655 8.09221L9.42149 8.18812C9.45645 8.25731 9.49135 8.3798 9.52629 8.55544C9.56117 8.73107 9.58368 8.92537 9.59358 9.13819C9.61848 9.52686 9.61848 9.85956 9.59358 10.1363C9.56861 10.4132 9.54503 10.6287 9.52251 10.7831C9.5 10.9375 9.46635 11.0626 9.42149 11.1584C9.37655 11.2542 9.34664 11.3128 9.33165 11.334C9.31668 11.3553 9.30421 11.3687 9.29431 11.3739C9.22947 11.4005 9.16204 11.414 9.09225 11.414C9.02236 11.414 8.93761 11.3767 8.83786 11.3021C8.73815 11.2275 8.63466 11.1251 8.52739 10.9947C8.42013 10.8642 8.29916 10.6819 8.16443 10.4477C8.02981 10.2135 7.89013 9.93669 7.74546 9.61731L7.62578 9.38568C7.55096 9.23667 7.44875 9.0197 7.31906 8.73496C7.18929 8.45011 7.07458 8.17458 6.97486 7.90841C6.935 7.79663 6.87511 7.71152 6.79532 7.65296L6.75787 7.62893C6.73298 7.60768 6.69301 7.58511 6.63819 7.56106C6.58328 7.53703 6.526 7.51981 6.46608 7.50921L4.41596 7.52509C4.20647 7.52509 4.06432 7.57574 3.98948 7.6769L3.95952 7.72475C3.94456 7.7514 3.93701 7.79397 3.93701 7.85256C3.93701 7.91112 3.95198 7.983 3.98193 8.06811C4.28121 8.81876 4.60667 9.54269 4.95831 10.24C5.30995 10.9374 5.61552 11.4991 5.87483 11.9247C6.1342 12.3506 6.39858 12.7526 6.66796 13.1304C6.93733 13.5084 7.11564 13.7506 7.20289 13.8571C7.29023 13.9637 7.35884 14.0434 7.40871 14.0966L7.5958 14.2882C7.71552 14.416 7.8913 14.569 8.12326 14.7473C8.35527 14.9257 8.61212 15.1013 8.89395 15.2745C9.17582 15.4474 9.50375 15.5884 9.8779 15.6975C10.252 15.8067 10.6161 15.8506 10.9703 15.8294H11.8308C12.0053 15.8133 12.1375 15.7548 12.2274 15.6537L12.2571 15.6137C12.2771 15.5819 12.2959 15.5326 12.3131 15.4661C12.3307 15.3996 12.3394 15.3263 12.3394 15.2466C12.3343 15.0177 12.3506 14.8114 12.3879 14.6278C12.4252 14.4442 12.4677 14.3058 12.5153 14.2126C12.5628 14.1195 12.6164 14.0409 12.6761 13.9772C12.7359 13.9133 12.7785 13.8747 12.8035 13.8613C12.8283 13.8479 12.8482 13.8389 12.8631 13.8334C12.9828 13.7908 13.1237 13.8321 13.286 13.9573C13.4481 14.0824 13.6003 14.2368 13.7424 14.4204C13.8846 14.6041 14.0554 14.8103 14.2549 15.0392C14.4546 15.2681 14.6291 15.4383 14.7786 15.5502L14.9282 15.6461C15.0282 15.71 15.1579 15.7685 15.3175 15.8218C15.4769 15.875 15.6165 15.8883 15.7364 15.8617L17.6518 15.8298C17.8412 15.8298 17.9886 15.7963 18.0932 15.7299C18.198 15.6633 18.2602 15.59 18.2803 15.5104C18.3003 15.4305 18.3014 15.34 18.2841 15.2387C18.2663 15.1377 18.2489 15.0671 18.2315 15.0272Z" fill="white"/>
</svg>
