<svg width="18" height="18" viewBox="0 0 18 18" fill="none" xmlns="http://www.w3.org/2000/svg">
<path d="M17.3332 13.0999V15.5999C17.3341 15.832 17.2866 16.0617 17.1936 16.2744C17.1006 16.487 16.9643 16.6779 16.7933 16.8348C16.6222 16.9917 16.4203 17.1112 16.2005 17.1855C15.9806 17.2599 15.7477 17.2875 15.5165 17.2666C12.9522 16.988 10.489 16.1117 8.32486 14.7083C6.31139 13.4288 4.60431 11.7217 3.32486 9.70825C1.91651 7.53425 1.04007 5.05908 0.76653 2.48325C0.745705 2.25281 0.773092 2.02055 0.846947 1.80127C0.920801 1.58199 1.03951 1.38049 1.1955 1.2096C1.3515 1.03871 1.54137 0.902176 1.75302 0.808686C1.96468 0.715197 2.19348 0.666803 2.42486 0.666585H4.92486C5.32928 0.662604 5.72136 0.805817 6.028 1.06953C6.33464 1.33324 6.53493 1.69946 6.59153 2.09992C6.69705 2.89997 6.89274 3.68552 7.17486 4.44158C7.28698 4.73985 7.31125 5.06401 7.24478 5.37565C7.17832 5.68729 7.02392 5.97334 6.79986 6.19992L5.74153 7.25825C6.92783 9.34454 8.65524 11.072 10.7415 12.2583L11.7999 11.1999C12.0264 10.9759 12.3125 10.8215 12.6241 10.755C12.9358 10.6885 13.2599 10.7128 13.5582 10.8249C14.3143 11.107 15.0998 11.3027 15.8999 11.4083C16.3047 11.4654 16.6744 11.6693 16.9386 11.9812C17.2029 12.2931 17.3433 12.6912 17.3332 13.0999Z" fill="#2A7DE3" fill-opacity="0.5"/>
</svg>
