<svg width="177" height="37" viewBox="0 0 177 37" fill="none" xmlns="http://www.w3.org/2000/svg">
<path d="M2.68 29C1.85333 29 1.21333 28.7733 0.76 28.32C0.306667 27.84 0.0800003 27.1867 0.0800003 26.36V3.28C0.0800003 2.42667 0.293334 1.78667 0.72 1.36C1.17333 0.906666 1.81333 0.68 2.64 0.68C3.46667 0.68 4.09333 0.906666 4.52 1.36C4.97333 1.78667 5.2 2.42667 5.2 3.28V24.64H16.8C17.52 24.64 18.0667 24.8267 18.44 25.2C18.84 25.5733 19.04 26.1067 19.04 26.8C19.04 27.4933 18.84 28.04 18.44 28.44C18.0667 28.8133 17.52 29 16.8 29H2.68ZM30.7856 29.4C28.759 29.4 26.999 28.9867 25.5056 28.16C24.0123 27.3333 22.8523 26.16 22.0256 24.64C21.199 23.0933 20.7856 21.28 20.7856 19.2C20.7856 17.6267 21.0123 16.2267 21.4656 15C21.9456 13.7467 22.6256 12.68 23.5056 11.8C24.3856 10.8933 25.439 10.2133 26.6656 9.76C27.8923 9.28 29.2656 9.04 30.7856 9.04C32.8123 9.04 34.5723 9.45333 36.0656 10.28C37.559 11.1067 38.719 12.28 39.5456 13.8C40.3723 15.32 40.7856 17.12 40.7856 19.2C40.7856 20.7733 40.5456 22.1867 40.0656 23.44C39.6123 24.6933 38.9456 25.7733 38.0656 26.68C37.1856 27.56 36.1323 28.24 34.9056 28.72C33.679 29.1733 32.3056 29.4 30.7856 29.4ZM30.7856 25.6C31.7723 25.6 32.639 25.36 33.3856 24.88C34.1323 24.4 34.7056 23.6933 35.1056 22.76C35.5323 21.8 35.7456 20.6133 35.7456 19.2C35.7456 17.0667 35.2923 15.48 34.3856 14.44C33.479 13.3733 32.279 12.84 30.7856 12.84C29.799 12.84 28.9323 13.08 28.1856 13.56C27.439 14.0133 26.8523 14.72 26.4256 15.68C26.0256 16.6133 25.8256 17.7867 25.8256 19.2C25.8256 21.3067 26.279 22.9067 27.1856 24C28.0923 25.0667 29.2923 25.6 30.7856 25.6ZM54.0325 36.6C52.5925 36.6 51.1925 36.4667 49.8325 36.2C48.4992 35.9333 47.2858 35.52 46.1925 34.96C45.6858 34.6933 45.3392 34.3733 45.1525 34C44.9925 33.6267 44.9392 33.24 44.9925 32.84C45.0725 32.4667 45.2325 32.1333 45.4725 31.84C45.7392 31.5467 46.0592 31.3467 46.4325 31.24C46.8058 31.1333 47.1925 31.1867 47.5925 31.4C48.7658 31.9867 49.8725 32.36 50.9125 32.52C51.9792 32.7067 52.8858 32.8 53.6325 32.8C55.4192 32.8 56.7525 32.36 57.6325 31.48C58.5392 30.6267 58.9925 29.3467 58.9925 27.64V24.04H59.3525C58.9525 25.4 58.1125 26.4933 56.8325 27.32C55.5792 28.12 54.1525 28.52 52.5525 28.52C50.7925 28.52 49.2592 28.12 47.9525 27.32C46.6458 26.4933 45.6325 25.3467 44.9125 23.88C44.1925 22.4133 43.8325 20.7067 43.8325 18.76C43.8325 17.2933 44.0325 15.9733 44.4325 14.8C44.8592 13.6 45.4458 12.5733 46.1925 11.72C46.9658 10.8667 47.8858 10.2133 48.9525 9.76C50.0458 9.28 51.2458 9.04 52.5525 9.04C54.2058 9.04 55.6458 9.45333 56.8725 10.28C58.1258 11.08 58.9392 12.1467 59.3125 13.48L58.9125 14.48V11.64C58.9125 10.8133 59.1258 10.1867 59.5525 9.76C60.0058 9.33333 60.6192 9.12 61.3925 9.12C62.1925 9.12 62.8058 9.33333 63.2325 9.76C63.6592 10.1867 63.8725 10.8133 63.8725 11.64V27.04C63.8725 30.2133 63.0325 32.6 61.3525 34.2C59.6725 35.8 57.2325 36.6 54.0325 36.6ZM53.9125 24.72C54.9525 24.72 55.8458 24.48 56.5925 24C57.3392 23.52 57.9125 22.84 58.3125 21.96C58.7392 21.0533 58.9525 19.9867 58.9525 18.76C58.9525 16.92 58.4992 15.48 57.5925 14.44C56.6858 13.3733 55.4592 12.84 53.9125 12.84C52.8725 12.84 51.9792 13.08 51.2325 13.56C50.4858 14.04 49.8992 14.72 49.4725 15.6C49.0725 16.48 48.8725 17.5333 48.8725 18.76C48.8725 20.6 49.3258 22.0533 50.2325 23.12C51.1392 24.1867 52.3658 24.72 53.9125 24.72ZM77.9731 29.4C75.9465 29.4 74.1865 28.9867 72.6931 28.16C71.1998 27.3333 70.0398 26.16 69.2131 24.64C68.3865 23.0933 67.9731 21.28 67.9731 19.2C67.9731 17.6267 68.1998 16.2267 68.6531 15C69.1331 13.7467 69.8131 12.68 70.6931 11.8C71.5731 10.8933 72.6265 10.2133 73.8531 9.76C75.0798 9.28 76.4531 9.04 77.9731 9.04C79.9998 9.04 81.7598 9.45333 83.2531 10.28C84.7465 11.1067 85.9065 12.28 86.7331 13.8C87.5598 15.32 87.9731 17.12 87.9731 19.2C87.9731 20.7733 87.7331 22.1867 87.2531 23.44C86.7998 24.6933 86.1331 25.7733 85.2531 26.68C84.3731 27.56 83.3198 28.24 82.0931 28.72C80.8665 29.1733 79.4931 29.4 77.9731 29.4ZM77.9731 25.6C78.9598 25.6 79.8265 25.36 80.5731 24.88C81.3198 24.4 81.8931 23.6933 82.2931 22.76C82.7198 21.8 82.9331 20.6133 82.9331 19.2C82.9331 17.0667 82.4798 15.48 81.5731 14.44C80.6665 13.3733 79.4665 12.84 77.9731 12.84C76.9865 12.84 76.1198 13.08 75.3731 13.56C74.6265 14.0133 74.0398 14.72 73.6131 15.68C73.2131 16.6133 73.0131 17.7867 73.0131 19.2C73.0131 21.3067 73.4665 22.9067 74.3731 24C75.2798 25.0667 76.4798 25.6 77.9731 25.6Z" fill="#2A7DE3"/>
<path d="M101.94 29.32C101.113 29.32 100.473 29.0933 100.02 28.64C99.5933 28.16 99.38 27.5067 99.38 26.68V5.08H91.58C90.8867 5.08 90.34 4.89333 89.94 4.52C89.5667 4.12 89.38 3.58667 89.38 2.92C89.38 2.22667 89.5667 1.70667 89.94 1.36C90.34 0.986665 90.8867 0.799998 91.58 0.799998H112.3C112.993 0.799998 113.527 0.986665 113.9 1.36C114.3 1.70667 114.5 2.22667 114.5 2.92C114.5 3.58667 114.3 4.12 113.9 4.52C113.527 4.89333 112.993 5.08 112.3 5.08H104.5V26.68C104.5 27.5067 104.287 28.16 103.86 28.64C103.433 29.0933 102.793 29.32 101.94 29.32ZM118.896 36.52C118.309 36.52 117.829 36.36 117.456 36.04C117.083 35.7467 116.856 35.3467 116.776 34.84C116.723 34.3333 116.816 33.8 117.056 33.24L119.776 27.2V29.28L112.496 12.44C112.256 11.8533 112.176 11.3067 112.256 10.8C112.336 10.2933 112.576 9.89333 112.976 9.6C113.403 9.28 113.976 9.12 114.696 9.12C115.309 9.12 115.803 9.26667 116.176 9.56C116.549 9.82667 116.883 10.3467 117.176 11.12L122.576 24.6H121.376L126.896 11.08C127.189 10.3333 127.536 9.82667 127.936 9.56C128.336 9.26667 128.869 9.12 129.536 9.12C130.123 9.12 130.589 9.28 130.936 9.6C131.283 9.89333 131.496 10.2933 131.576 10.8C131.656 11.28 131.563 11.8133 131.296 12.4L121.576 34.6C121.229 35.3467 120.856 35.8533 120.456 36.12C120.056 36.3867 119.536 36.52 118.896 36.52ZM137.471 36.52C136.671 36.52 136.057 36.3067 135.631 35.88C135.204 35.4533 134.991 34.8267 134.991 34V11.64C134.991 10.8133 135.204 10.1867 135.631 9.76C136.057 9.33333 136.657 9.12 137.431 9.12C138.231 9.12 138.844 9.33333 139.271 9.76C139.697 10.1867 139.911 10.8133 139.911 11.64V14.76L139.471 13.56C139.871 12.2 140.684 11.1067 141.911 10.28C143.164 9.45333 144.617 9.04 146.271 9.04C147.977 9.04 149.471 9.45333 150.751 10.28C152.057 11.1067 153.071 12.28 153.791 13.8C154.511 15.2933 154.871 17.0933 154.871 19.2C154.871 21.28 154.511 23.0933 153.791 24.64C153.071 26.16 152.071 27.3333 150.791 28.16C149.511 28.9867 148.004 29.4 146.271 29.4C144.644 29.4 143.217 29 141.991 28.2C140.764 27.3733 139.937 26.3067 139.511 25H139.991V34C139.991 34.8267 139.764 35.4533 139.311 35.88C138.884 36.3067 138.271 36.52 137.471 36.52ZM144.871 25.6C145.857 25.6 146.724 25.36 147.471 24.88C148.217 24.4 148.791 23.6933 149.191 22.76C149.617 21.8 149.831 20.6133 149.831 19.2C149.831 17.0667 149.377 15.48 148.471 14.44C147.564 13.3733 146.364 12.84 144.871 12.84C143.884 12.84 143.017 13.08 142.271 13.56C141.524 14.0133 140.937 14.72 140.511 15.68C140.111 16.6133 139.911 17.7867 139.911 19.2C139.911 21.3067 140.364 22.9067 141.271 24C142.177 25.0667 143.377 25.6 144.871 25.6ZM168.615 29.4C166.402 29.4 164.495 28.9867 162.895 28.16C161.295 27.3333 160.055 26.16 159.175 24.64C158.322 23.12 157.895 21.32 157.895 19.24C157.895 17.2133 158.308 15.44 159.135 13.92C159.988 12.4 161.148 11.2133 162.615 10.36C164.108 9.48 165.802 9.04 167.695 9.04C169.082 9.04 170.322 9.26667 171.415 9.72C172.535 10.1733 173.482 10.8267 174.255 11.68C175.055 12.5333 175.655 13.5733 176.055 14.8C176.482 16 176.695 17.36 176.695 18.88C176.695 19.36 176.522 19.7333 176.175 20C175.855 20.24 175.388 20.36 174.775 20.36H161.935V17.48H173.175L172.535 18.08C172.535 16.8533 172.348 15.8267 171.975 15C171.628 14.1733 171.108 13.5467 170.415 13.12C169.748 12.6667 168.908 12.44 167.895 12.44C166.775 12.44 165.815 12.7067 165.015 13.24C164.242 13.7467 163.642 14.48 163.215 15.44C162.815 16.3733 162.615 17.4933 162.615 18.8V19.08C162.615 21.2667 163.122 22.9067 164.135 24C165.175 25.0667 166.695 25.6 168.695 25.6C169.388 25.6 170.162 25.52 171.015 25.36C171.895 25.1733 172.722 24.8667 173.495 24.44C174.055 24.12 174.548 23.9867 174.975 24.04C175.402 24.0667 175.735 24.2133 175.975 24.48C176.242 24.7467 176.402 25.08 176.455 25.48C176.508 25.8533 176.428 26.24 176.215 26.64C176.028 27.04 175.695 27.3867 175.215 27.68C174.282 28.2667 173.202 28.7067 171.975 29C170.775 29.2667 169.655 29.4 168.615 29.4Z" fill="#101010"/>
</svg>
