<svg width="17" height="17" viewBox="0 0 17 17" fill="none" xmlns="http://www.w3.org/2000/svg">
<path d="M4.07148 3.35712H12.9286C13.403 3.35709 13.8594 3.53858 14.2042 3.86436C14.549 4.19014 14.756 4.63551 14.7829 5.10912L14.7858 5.21426V11.7857C14.7858 12.2601 14.6043 12.7164 14.2785 13.0613C13.9527 13.4061 13.5074 13.6131 13.0338 13.64L12.9286 13.6428H4.07148C3.59711 13.6429 3.14072 13.4614 2.79592 13.1356C2.45111 12.8098 2.24405 12.3644 2.21719 11.8908L2.21433 11.7857V5.21426C2.2143 4.7399 2.39579 4.2835 2.72157 3.9387C3.04735 3.5939 3.49273 3.38683 3.96633 3.35997L4.07148 3.35712H12.9286H4.07148ZM13.9286 6.7314L8.69776 9.4514C8.64709 9.47773 8.59167 9.49367 8.53476 9.49828C8.47784 9.5029 8.42058 9.49609 8.36633 9.47826L8.30233 9.4514L3.07148 6.7314V11.7857C3.07148 12.0367 3.16586 12.2784 3.33586 12.4631C3.50587 12.6477 3.73908 12.7616 3.98919 12.7823L4.07148 12.7857H12.9286C13.1797 12.7857 13.4215 12.6912 13.6062 12.5211C13.7908 12.351 13.9047 12.1176 13.9252 11.8674L13.9286 11.7857V6.7314ZM12.9286 4.21426H4.07148C3.82051 4.21427 3.57872 4.30864 3.39411 4.47865C3.2095 4.64865 3.09555 4.88186 3.0749 5.13197L3.07148 5.21426V5.76512L8.50005 8.58797L13.9286 5.76512V5.21426C13.9286 4.9632 13.8341 4.72134 13.664 4.53671C13.4939 4.35208 13.2605 4.2382 13.0103 4.21769L12.9286 4.21426Z" fill="#2A7DE3"/>
</svg>
