<svg width="17" height="17" viewBox="0 0 17 17" fill="none" xmlns="http://www.w3.org/2000/svg">
<path d="M14.5427 3.30149L14.5213 3.28811L11.8153 1.95496L8.89453 5.84924L10.2383 7.64102C10.1981 8.31674 9.91152 8.95428 9.43286 9.43293C8.9542 9.91158 8.31667 10.1981 7.64094 10.2383L5.84919 8.89458L1.95494 11.8152L3.277 14.4986L3.28813 14.5213L3.30153 14.5427C3.37209 14.6564 3.47056 14.7501 3.58758 14.8149C3.7046 14.8798 3.83627 14.9136 3.97007 14.9132H4.66832C6.01369 14.9132 7.3459 14.6482 8.58887 14.1334C9.83183 13.6185 10.9612 12.8639 11.9125 11.9125C12.8639 10.9612 13.6185 9.83182 14.1334 8.58885C14.6482 7.34588 14.9132 6.01368 14.9132 4.6683V3.97002C14.9136 3.83623 14.8798 3.70456 14.8149 3.58754C14.7501 3.47052 14.6564 3.37204 14.5427 3.30149ZM13.9132 4.6683C13.9132 9.76596 9.76594 13.9132 4.66832 13.9132H4.10332L3.21875 12.1175L5.84938 10.1445L7.31397 11.2429H7.48063C8.47816 11.2418 9.43452 10.845 10.1399 10.1397C10.8452 9.43432 11.242 8.47796 11.2431 7.48042V7.31377L10.1447 5.84921L12.1175 3.21874L13.9132 4.10346V4.6683Z" fill="#2A7DE3"/>
</svg>
