<svg width="32" height="32" viewBox="0 0 32 32" fill="none" xmlns="http://www.w3.org/2000/svg">
<path d="M11 16.8625L22.2375 26.75C22.3674 26.865 22.5249 26.9442 22.6946 26.9799C22.8644 27.0155 23.0405 27.0065 23.2057 26.9535C23.3708 26.9006 23.5194 26.8056 23.6367 26.6778C23.7541 26.5501 23.8362 26.3941 23.875 26.225L28.575 5.70001C28.6144 5.52324 28.6051 5.3391 28.548 5.16723C28.4909 4.99535 28.3882 4.84221 28.2509 4.72414C28.1136 4.60607 27.9468 4.5275 27.7683 4.49683C27.5898 4.46617 27.4064 4.48454 27.2375 4.55001L4.1625 13.6125C3.2375 13.975 3.3625 15.325 4.3375 15.525L11 16.8625Z" stroke="#383838" stroke-width="2" stroke-linecap="round" stroke-linejoin="round"/>
<path d="M11 16.8625L28.0125 4.57501" stroke="#383838" stroke-width="2" stroke-linecap="round" stroke-linejoin="round"/>
<path d="M16.6125 21.8L12.7125 25.7C12.5734 25.8413 12.3954 25.938 12.2011 25.9779C12.0069 26.0178 11.8052 25.999 11.6216 25.924C11.4381 25.8489 11.281 25.721 11.1703 25.5565C11.0596 25.392 11.0003 25.1983 11 25V16.8625" stroke="#383838" stroke-width="2" stroke-linecap="round" stroke-linejoin="round"/>
</svg>
