<svg width="17" height="17" viewBox="0 0 17 17" fill="none" xmlns="http://www.w3.org/2000/svg">
<path d="M8.5 13.8333C11.4333 13.8333 13.8333 11.4333 13.8333 8.49998C13.8333 5.56665 11.4333 3.16665 8.5 3.16665C5.56667 3.16665 3.16667 5.56665 3.16667 8.49998C3.16667 11.4333 5.56667 13.8333 8.5 13.8333ZM8.5 1.83331C12.1667 1.83331 15.1667 4.83331 15.1667 8.49998C15.1667 12.1666 12.1667 15.1666 8.5 15.1666C4.83334 15.1666 1.83334 12.1666 1.83334 8.49998C1.83334 4.83331 4.83334 1.83331 8.5 1.83331ZM10.7 11.3L9.83334 11.8333L7.83334 8.36665V5.16665H8.83334V8.09998L10.7 11.3Z" fill="#2A7DE3"/>
</svg>
